<?xml version="1.0" standalone="no"?>
<svg xmlns:xlink="http://www.w3.org/1999/xlink" id="wave" style="transform:rotate(180deg); transition: 0.3s" viewBox="0 0 1440 490" version="1.1" xmlns="http://www.w3.org/2000/svg"><defs><linearGradient id="sw-gradient-0" x1="0" x2="0" y1="1" y2="0"><stop stop-color="rgba(1, 22, 39, 1)" offset="0%"/><stop stop-color="rgba(110, 176, 230, 1)" offset="100%"/></linearGradient></defs><path style="transform:translate(0, 0px); opacity:1" fill="url(#sw-gradient-0)" d="M0,343L80,351.2C160,359,320,376,480,334.8C640,294,800,196,960,196C1120,196,1280,294,1440,334.8C1600,376,1760,359,1920,367.5C2080,376,2240,408,2400,408.3C2560,408,2720,376,2880,343C3040,310,3200,278,3360,261.3C3520,245,3680,245,3840,228.7C4000,212,4160,180,4320,171.5C4480,163,4640,180,4800,204.2C4960,229,5120,261,5280,228.7C5440,196,5600,98,5760,114.3C5920,131,6080,261,6240,318.5C6400,376,6560,359,6720,351.2C6880,343,7040,343,7200,359.3C7360,376,7520,408,7680,400.2C7840,392,8000,343,8160,294C8320,245,8480,196,8640,187.8C8800,180,8960,212,9120,212.3C9280,212,9440,180,9600,196C9760,212,9920,278,10080,318.5C10240,359,10400,376,10560,343C10720,310,10880,229,11040,163.3C11200,98,11360,49,11440,24.5L11520,0L11520,490L11440,490C11360,490,11200,490,11040,490C10880,490,10720,490,10560,490C10400,490,10240,490,10080,490C9920,490,9760,490,9600,490C9440,490,9280,490,9120,490C8960,490,8800,490,8640,490C8480,490,8320,490,8160,490C8000,490,7840,490,7680,490C7520,490,7360,490,7200,490C7040,490,6880,490,6720,490C6560,490,6400,490,6240,490C6080,490,5920,490,5760,490C5600,490,5440,490,5280,490C5120,490,4960,490,4800,490C4640,490,4480,490,4320,490C4160,490,4000,490,3840,490C3680,490,3520,490,3360,490C3200,490,3040,490,2880,490C2720,490,2560,490,2400,490C2240,490,2080,490,1920,490C1760,490,1600,490,1440,490C1280,490,1120,490,960,490C800,490,640,490,480,490C320,490,160,490,80,490L0,490Z"/></svg>